<svg xmlns="http://www.w3.org/2000/svg" width="35.955" height="36" viewBox="0 0 112.959 150.612">
  <path id="clipboard-icon" d="M98.839,18.826H75.306a18.826,18.826,0,1,0-37.653,0H14.12A14.123,14.123,0,0,0,0,32.946V136.492a14.123,14.123,0,0,0,14.12,14.12H98.839a14.123,14.123,0,0,0,14.12-14.12V32.946A14.123,14.123,0,0,0,98.839,18.826Zm-70.6,105.9a7.06,7.06,0,1,1,7.06-7.06A7.043,7.043,0,0,1,28.24,124.725Zm0-28.24a7.06,7.06,0,1,1,7.06-7.06A7.043,7.043,0,0,1,28.24,96.486Zm0-28.24a7.06,7.06,0,1,1,7.06-7.06A7.043,7.043,0,0,1,28.24,68.246Zm28.24-56.479a7.06,7.06,0,1,1-7.06,7.06A7.043,7.043,0,0,1,56.479,11.767ZM94.132,120.019a2.36,2.36,0,0,1-2.353,2.353H49.419a2.36,2.36,0,0,1-2.353-2.353v-4.707a2.36,2.36,0,0,1,2.353-2.353h42.36a2.36,2.36,0,0,1,2.353,2.353Zm0-28.24a2.36,2.36,0,0,1-2.353,2.353H49.419a2.36,2.36,0,0,1-2.353-2.353V87.072a2.36,2.36,0,0,1,2.353-2.353h42.36a2.36,2.36,0,0,1,2.353,2.353Zm0-28.24a2.36,2.36,0,0,1-2.353,2.353H49.419a2.36,2.36,0,0,1-2.353-2.353V58.833a2.36,2.36,0,0,1,2.353-2.353h42.36a2.36,2.36,0,0,1,2.353,2.353Z" fill="#fff"/>
</svg>
